<svg viewBox="0 0 72 72" fill="none" xmlns="http://www.w3.org/2000/svg">
  <path d="M72 0H0v72h72V0z" fill="url(#paint0_linear)"/>
  <path d="M18.4 37.5c-.1 0-.1.1-.1.1l-.3 2 .3 2c0 .1.1.1.1.1.1 0 .1-.1.1-.1l.3-2-.3-2c0-.1 0-.1-.1-.1zm1.5-1c0-.1-.1-.1-.1-.1-.1 0-.1.1-.1.1l-.4 3.2.4 3.2c0 .1.1.1.1.1.1 0 .1-.1.1-.1l.4-3.2-.4-3.2zm5.6-3c-.1 0-.3.1-.3.3l-.3 5.9.3 3.8c0 .2.1.3.3.3.1 0 .3-.1.3-.3l.3-3.8-.3-5.9c-.1-.3-.2-.3-.3-.3zm-2.9 2c-.1 0-.2.1-.2.2l-.4 4 .3 3.8c0 .1.1.2.2.2s.2-.1.2-.2l.4-3.8-.4-3.9c.1-.1 0-.3-.1-.3zm5.8 8.3c.2 0 .3-.1.3-.3l.3-3.8-.3-7.9c0-.2-.2-.3-.3-.3-.2 0-.3.1-.3.3l-.2 7.9.2 3.8c0 .2.1.3.3.3zm6 .1c.2 0 .5-.2.5-.5l.2-3.7-.2-9.1c0-.3-.2-.5-.5-.5-.2 0-.5.2-.5.5l-.2 9.1.2 3.7c0 .3.3.5.5.5zm-3-.1c.2 0 .4-.2.4-.4l.2-3.7-.2-8c0-.2-.2-.4-.4-.4s-.4.2-.4.4l-.2 8 .2 3.7c0 .3.2.4.4.4zm-7.4 0c.1 0 .2-.1.2-.2l.3-3.8-.3-3.8c0-.1-.1-.2-.2-.2s-.2.1-.2.2l-.3 3.7.3 3.8c0 .2.1.3.2.3zm-2.8-.3c.1 0 .2-.1.2-.2l.4-3.7-.4-3.8c0-.1-.1-.2-.2-.2s-.2.1-.2.2l-.3 3.8.3 3.7c0 .2.1.2.2.2zm11.7-12c-.2 0-.4.2-.4.4l-.2 7.7.2 3.7c0 .2.2.4.4.4s.4-.2.4-.4l.2-3.7-.2-7.6c0-.2-.2-.5-.4-.5zm-6 12.4c.2 0 .3-.1.3-.3l.3-3.8-.3-7.3c0-.2-.1-.3-.3-.3-.2 0-.3.1-.3.3l-.3 7.3.3 3.8c0 .1.2.3.3.3zm3.3-.4l.3-3.8-.3-8.2c0-.2-.2-.4-.4-.4s-.4.2-.4.4l-.2 8.2.2 3.8c0 .2.2.4.4.4.3 0 .4-.2.4-.4zM49.6 35c-.6 0-1.2.1-1.7.3-.4-4-3.7-7.1-7.8-7.1-1 0-2 .2-2.8.5-.3.1-.4.3-.4.5v14.1c0 .3.2.5.5.5h12.3c2.4 0 4.4-2 4.4-4.4C54 37 52 35 49.6 35zm-13.7-5.8c-.3 0-.5.2-.5.5l-.2 10 .2 3.6c0 .3.2.5.5.5s.5-.2.5-.5l.2-3.6-.2-10c0-.2-.2-.5-.5-.5z" fill="#fff"/>
  <defs>
    <linearGradient id="paint0_linear" x1="36" y1="0" x2="36" y2="72" gradientUnits="userSpaceOnUse">
      <stop stop-color="#F79810"/>
      <stop offset="1" stop-color="#F8310E"/>
    </linearGradient>
  </defs>
</svg>
